<svg viewBox="0 0 24 24" fill="currentColor" xmlns="http://www.w3.org/2000/svg">
  <path d="M12.0007 2.00017C6.4746 2.00017 2.00073 6.47404 2.00073 12.0002C2.00073 14.2047 2.68239 16.2057 3.84277 17.784L2.30239 22.1866L6.87702 20.7381C8.25732 21.5794 10.0483 22.0002 12.0007 22.0002H12.0008C17.5268 22.0002 22.0007 17.5263 22.0007 12.0002C22.0007 6.47404 17.5268 2.00017 12.0007 2.00017ZM16.5507 14.4002C16.3267 14.8875 13.9189 16.0002 13.4357 16.0002C12.9525 16.0002 12.1895 15.8267 11.4266 15.0637C10.6636 14.3007 10.0381 13.1979 9.81404 12.974C9.58999 12.75 8.95029 12.2133 8.36109 11.2372C7.77188 10.2611 7.28456 9.4008 7.28456 8.91763C7.28456 8.43446 7.69766 8.2104 7.92171 8.08375C8.04836 7.95709 8.22181 7.78364 8.39526 7.55959C8.56872 7.33554 8.68174 7.27189 8.85519 7.04784C9.02864 6.82379 9.14167 6.71077 9.29777 7.04784C9.45387 7.38491 9.50854 8.08375 9.56943 8.2104C9.63032 8.33705 9.69121 8.43446 9.50854 8.77153C9.32587 9.1086 9.21285 9.23525 8.9888 9.4593C8.76475 9.68335 8.5913 9.87321 8.41784 10.0631C8.24439 10.2529 8.07094 10.4391 8.24439 10.7762C8.41784 11.1132 8.9404 12.0002 9.77452 12.7712C10.6086 13.5423 11.2982 13.8407 11.5223 13.9702C11.7463 14.0997 11.9198 14.1563 12.0863 14.0997C12.2529 14.0431 12.6934 13.8407 12.9174 13.5939C13.1415 13.3472 13.3149 13.2335 13.539 13.1769C13.763 13.1203 14.3986 12.8631 14.9878 13.6593C15.577 14.4555 16.0996 14.8875 16.273 14.9441C16.4465 15.0007 16.7747 14.9441 16.5507 14.4002Z" />
</svg>